<?xml version="1.0" encoding="UTF-8"?>
<svg id="Layer_2" data-name="Layer 2" xmlns="http://www.w3.org/2000/svg" viewBox="0 0 423.63 151.17">
  <defs>
    <style>
      .cls-1 {
        fill: #fff;
      }

      .cls-2 {
        fill: #e80863;
      }

      .cls-3 {
        stroke: #fff;
        stroke-linecap: round;
        stroke-linejoin: round;
        stroke-width: 15px;
      }

      .cls-3, .cls-4 {
        fill: none;
      }

      .cls-4 {
        stroke: #000;
        stroke-miterlimit: 10;
        stroke-width: 3px;
      }
    </style>
  </defs>
  <g id="Layer_1-2" data-name="Layer 1">
    <g>
      <g>
        <path d="M198.57,84.21c-2.66,0-4.73-.66-6.24-1.99-1.5-1.33-2.56-3.27-3.16-5.83-.6-2.56-.9-5.7-.9-9.41v-22.37c0-2.37.14-4.55.42-6.55.28-2,.79-3.74,1.52-5.23.74-1.48,1.79-2.63,3.17-3.45,1.38-.82,3.18-1.23,5.4-1.23s3.92.41,5.23,1.21c1.31.81,2.29,1.94,2.96,3.39s1.1,3.17,1.32,5.15.33,4.15.33,6.52v5.44h-5.6v-5.72c0-3.69-.25-6.48-.75-8.37-.5-1.89-1.67-2.83-3.52-2.83s-3.22.95-3.87,2.85c-.65,1.9-.98,4.67-.98,8.32v22.93c0,2.97.12,5.37.36,7.2s.7,3.17,1.37,4c.67.83,1.65,1.24,2.94,1.24,1.87,0,3.08-.96,3.62-2.89.55-1.93.82-5.11.82-9.55v-5.32h5.63v5.26c0,3.73-.28,6.88-.84,9.44-.56,2.56-1.57,4.5-3.02,5.82-1.45,1.32-3.53,1.98-6.22,1.98Z"/>
        <path d="M223.59,83.93c-2.66,0-4.61-1.07-5.85-3.2-1.25-2.14-1.88-5.14-1.9-9.02v-5.2c0-1.87.35-3.44,1.06-4.71.7-1.28,1.69-2.36,2.96-3.25,1.27-.89,2.75-1.71,4.45-2.46,1.7-.75,3.55-1.52,5.54-2.33v-3.42c0-2.16-.06-3.92-.19-5.27-.12-1.36-.46-2.36-1-3-.54-.64-1.41-.96-2.61-.96s-2.06.32-2.65.95c-.58.63-.95,1.64-1.12,3.02-.17,1.38-.25,3.19-.25,5.43v1.4h-5.6v-1.28c0-1.95.1-3.79.29-5.51.2-1.72.61-3.24,1.25-4.54s1.6-2.34,2.89-3.1c1.3-.76,3.04-1.14,5.24-1.14s3.86.35,5.1,1.04c1.25.7,2.17,1.73,2.79,3.1.61,1.37,1.01,3.05,1.2,5.04.19,1.99.28,4.29.28,6.91v31.14h-5.63v-3.8c-.17.52-.5,1.1-1.01,1.76-.51.65-1.19,1.22-2.05,1.7-.86.48-1.92.71-3.19.71ZM224.96,79.36c1.18,0,2.21-.35,3.1-1.06.88-.71,1.48-1.4,1.79-2.08v-18.51c-1.76.77-3.2,1.45-4.29,2.04-1.1.59-1.94,1.21-2.54,1.85-.59.64-1,1.42-1.21,2.32s-.33,2.05-.33,3.44v4.04c0,2.86.23,4.91.7,6.13.47,1.22,1.39,1.84,2.79,1.84Z"/>
        <path d="M244.22,32.6v-5.26h5.63v5.26h-5.63ZM244.22,83.56v-46.67h5.63v46.67h-5.63Z"/>
        <path d="M259.43,83.56v-46.67h5.6v5.2c.54-1.8,1.48-3.21,2.82-4.23,1.34-1.02,3.04-1.52,5.12-1.52.04,0,.07.24.08.72,0,.48.02,1.03.02,1.66v2.38c-1,0-1.98.12-2.94.37-.96.25-1.87.67-2.72,1.28s-1.64,1.44-2.36,2.52v38.3h-5.6Z"/>
        <path d="M287.93,84.12c-2.18,0-3.92-.39-5.23-1.17-1.31-.78-2.3-1.89-2.99-3.33s-1.14-3.15-1.35-5.13-.33-4.19-.33-6.61v-16.15c0-2.92.24-5.55.72-7.87s1.43-4.16,2.85-5.51,3.53-2.02,6.33-2.02c2.12,0,3.82.38,5.1,1.15s2.27,1.85,2.94,3.25,1.12,3.03,1.35,4.9c.23,1.87.34,3.9.34,6.1v16.15c0,2.39-.1,4.56-.29,6.53-.2,1.97-.62,3.68-1.26,5.13-.64,1.45-1.62,2.58-2.92,3.38-1.31.8-3.06,1.2-5.26,1.2ZM287.93,79.36c1.2,0,2.09-.41,2.68-1.23.58-.82.97-1.96,1.17-3.44.2-1.47.3-3.18.3-5.13v-19.01c0-1.89-.1-3.54-.3-4.95-.2-1.41-.59-2.51-1.17-3.31-.58-.8-1.47-1.2-2.68-1.2-1.27,0-2.2.4-2.82,1.2-.61.8-1.01,1.9-1.2,3.31-.19,1.41-.28,3.06-.28,4.95v19.01c0,1.95.09,3.66.28,5.13s.59,2.62,1.21,3.44c.62.82,1.56,1.23,2.8,1.23Z"/>
        <path d="M330.81,84.21c-2.66,0-4.73-.66-6.24-1.99-1.5-1.33-2.56-3.27-3.16-5.83-.6-2.56-.9-5.7-.9-9.41v-22.37c0-2.37.14-4.55.42-6.55.28-2,.79-3.74,1.52-5.23.74-1.48,1.79-2.63,3.17-3.45,1.38-.82,3.18-1.23,5.4-1.23s3.92.41,5.23,1.21c1.31.81,2.29,1.94,2.96,3.39s1.1,3.17,1.32,5.15.33,4.15.33,6.52v5.44h-5.6v-5.72c0-3.69-.25-6.48-.75-8.37-.5-1.89-1.67-2.83-3.52-2.83s-3.22.95-3.87,2.85c-.65,1.9-.98,4.67-.98,8.32v22.93c0,2.97.12,5.37.36,7.2s.7,3.17,1.37,4c.67.83,1.65,1.24,2.94,1.24,1.87,0,3.08-.96,3.62-2.89.55-1.93.82-5.11.82-9.55v-5.32h5.63v5.26c0,3.73-.28,6.88-.84,9.44-.56,2.56-1.57,4.5-3.02,5.82-1.45,1.32-3.53,1.98-6.22,1.98Z"/>
        <path d="M358.19,84.12c-2.18,0-3.92-.39-5.23-1.17-1.31-.78-2.3-1.89-2.99-3.33s-1.14-3.15-1.35-5.13-.33-4.19-.33-6.61v-16.15c0-2.92.24-5.55.72-7.87s1.43-4.16,2.85-5.51,3.53-2.02,6.33-2.02c2.12,0,3.82.38,5.1,1.15s2.27,1.85,2.94,3.25,1.12,3.03,1.35,4.9c.23,1.87.34,3.9.34,6.1v16.15c0,2.39-.1,4.56-.29,6.53-.2,1.97-.62,3.68-1.26,5.13-.64,1.45-1.62,2.58-2.92,3.38-1.31.8-3.06,1.2-5.26,1.2ZM358.19,79.36c1.2,0,2.09-.41,2.68-1.23.58-.82.97-1.96,1.17-3.44.2-1.47.3-3.18.3-5.13v-19.01c0-1.89-.1-3.54-.3-4.95-.2-1.41-.59-2.51-1.17-3.31-.58-.8-1.47-1.2-2.68-1.2-1.27,0-2.2.4-2.82,1.2-.61.8-1.01,1.9-1.2,3.31-.19,1.41-.28,3.06-.28,4.95v19.01c0,1.95.09,3.66.28,5.13s.59,2.62,1.21,3.44c.62.82,1.56,1.23,2.8,1.23Z"/>
        <path d="M383.45,83.93c-2.22,0-3.88-.67-4.98-2.01s-1.83-3.16-2.18-5.48c-.35-2.31-.53-4.92-.53-7.83v-17.11c0-2.88.23-5.47.7-7.76s1.34-4.1,2.61-5.43c1.28-1.33,3.1-1.99,5.46-1.99,1.16,0,2.21.37,3.14,1.1s1.63,1.62,2.08,2.66v-11.95h5.63v55.41h-5.63v-3.76c-.62,1.51-1.51,2.58-2.66,3.21-1.15.62-2.37.93-3.66.93ZM385.29,79.33c.97,0,1.8-.22,2.47-.67.67-.45,1.18-1.35,1.52-2.72.34-1.37.51-3.41.51-6.13v-18.73c0-3.36-.26-5.85-.79-7.48-.53-1.63-1.71-2.44-3.53-2.44-1.64.02-2.73.82-3.27,2.41-.54,1.59-.81,4.15-.81,7.7v18.67c0,1.89.08,3.54.25,4.95.17,1.41.53,2.5,1.09,3.28.56.78,1.41,1.17,2.55,1.17Z"/>
        <path d="M413.57,84.12c-2.18,0-3.92-.39-5.23-1.18s-2.29-1.91-2.94-3.36-1.08-3.18-1.28-5.18c-.2-2-.3-4.22-.3-6.64v-16.12c0-2.2.12-4.23.37-6.08.25-1.86.73-3.47,1.43-4.85.71-1.38,1.71-2.45,3.02-3.22,1.31-.77,3.01-1.15,5.1-1.15s3.82.39,5.06,1.17c1.23.78,2.15,1.87,2.75,3.28.6,1.41.99,3.06,1.17,4.96.18,1.9.26,3.98.26,6.24v8.34h-13.57v9.33c0,3.24.22,5.66.65,7.28.44,1.62,1.6,2.43,3.49,2.43,1.24,0,2.13-.39,2.66-1.17.53-.78.86-1.88.98-3.3.12-1.42.19-3.12.19-5.09v-3.64h5.48v1.77c0,2.41-.07,4.59-.22,6.57-.15,1.97-.51,3.68-1.09,5.12-.58,1.44-1.5,2.55-2.77,3.33-1.27.78-3.01,1.17-5.23,1.17ZM409.43,56.18h7.97v-5.94c0-1.99-.05-3.67-.16-5.02s-.41-2.39-.92-3.1c-.51-.71-1.35-1.06-2.54-1.06-1.29,0-2.24.39-2.86,1.18-.62.79-1.03,1.89-1.21,3.3-.19,1.41-.28,3.06-.28,4.95v5.69Z"/>
      </g>
      <g>
        <path d="M330.72,138.49c-1.59,0-2.86-.3-3.83-.91-.96-.61-1.7-1.45-2.19-2.54-.49-1.08-.83-2.35-1-3.81-.17-1.45-.26-3.04-.26-4.76v-3.95h3.95v4.02c0,3.04.22,5.22.65,6.54.43,1.33,1.37,1.99,2.81,1.99.99,0,1.71-.24,2.16-.72.45-.48.73-1.24.85-2.28s.18-2.4.18-4.08c0-1.89-.28-3.46-.85-4.73-.57-1.26-1.47-2.48-2.69-3.65l-2.47-2.4c-.73-.72-1.47-1.52-2.22-2.4-.75-.88-1.37-1.9-1.88-3.06-.5-1.16-.75-2.49-.75-3.99,0-1.95.19-3.65.57-5.11.38-1.46,1.1-2.6,2.17-3.41,1.06-.82,2.6-1.22,4.6-1.22,1.62,0,2.89.29,3.83.88s1.62,1.4,2.07,2.46c.44,1.05.73,2.3.85,3.74.13,1.44.19,3.01.19,4.71v2.29h-3.79v-2.58c0-1.96-.08-3.53-.25-4.7-.17-1.17-.47-2.03-.91-2.56-.44-.53-1.1-.8-1.96-.8-.79,0-1.44.18-1.95.54-.51.36-.87.95-1.1,1.79-.22.83-.34,1.97-.34,3.42,0,1.15.13,2.09.4,2.81.27.72.68,1.38,1.22,1.99.55.61,1.22,1.32,2.01,2.14l2.47,2.54c1.45,1.48,2.62,3.12,3.5,4.93.88,1.8,1.32,3.96,1.32,6.48,0,2.1-.19,3.93-.58,5.49-.39,1.56-1.11,2.77-2.17,3.63-1.06.85-2.59,1.28-4.61,1.28Z"/>
        <path d="M344.33,138.04v-36.22h-4.24v-3.3h12.19v3.3h-3.91v36.22h-4.04Z"/>
        <path d="M363.34,138.51c-1.9,0-3.39-.39-4.48-1.16s-1.85-1.94-2.3-3.51c-.45-1.57-.67-3.56-.67-5.95v-29.37h4.06v29.26c0,1.54.06,2.86.17,3.96s.41,1.93.89,2.5c.48.57,1.26.85,2.33.85s1.89-.28,2.36-.85c.46-.57.74-1.4.84-2.49.1-1.09.15-2.41.15-3.95v-29.28h4.04v29.37c0,2.39-.22,4.38-.65,5.95-.43,1.57-1.19,2.74-2.26,3.51-1.07.77-2.56,1.16-4.48,1.16Z"/>
        <path d="M377.29,138.04v-39.52h6.83c2.1,0,3.71.45,4.84,1.34,1.13.89,1.91,2.16,2.33,3.79.43,1.64.64,3.59.64,5.85l.02,17.15c0,2.69-.26,4.88-.77,6.56s-1.36,2.9-2.53,3.67c-1.17.77-2.73,1.16-4.69,1.16h-6.67ZM381.33,134.67h2.56c.9,0,1.64-.2,2.22-.61.58-.4,1.03-1.16,1.33-2.28.3-1.12.45-2.74.45-4.88v-17.62c0-2.68-.31-4.59-.94-5.75-.63-1.15-1.62-1.73-2.96-1.73h-2.65v32.87Z"/>
        <path d="M398.32,138.04v-39.52h4.06v39.52h-4.06Z"/>
        <path d="M416.24,138.49c-1.95,0-3.46-.43-4.55-1.3-1.08-.87-1.84-2.18-2.28-3.95-.43-1.77-.65-4-.65-6.69v-17.15c0-2.28.19-4.26.58-5.96.39-1.7,1.13-3.02,2.22-3.97,1.09-.95,2.69-1.42,4.8-1.42,1.59,0,2.86.27,3.82.81s1.68,1.31,2.18,2.31c.49,1,.83,2.2,1,3.59.17,1.39.26,2.94.26,4.65v17.15c0,2.69-.21,4.92-.63,6.69s-1.16,3.08-2.23,3.95c-1.07.87-2.58,1.3-4.52,1.3ZM416.24,135.05c.9,0,1.59-.26,2.07-.77s.81-1.39.99-2.63c.18-1.24.27-2.93.27-5.09v-17.45c0-2.63-.2-4.57-.6-5.79-.4-1.23-1.26-1.84-2.59-1.84s-2.33.61-2.82,1.84c-.49,1.23-.73,3.15-.73,5.77v17.47c0,2.16.09,3.85.27,5.09.18,1.23.52,2.11,1.01,2.63s1.2.77,2.13.77Z"/>
      </g>
      <g>
        <rect class="cls-2" width="151.17" height="151.17" rx="36.02" ry="36.02"/>
        <g>
          <polyline class="cls-3" points="58.26 54.98 37.66 75.58 58.26 96.18"/>
          <polyline class="cls-3" points="92.91 54.98 113.51 75.58 92.91 96.18"/>
        </g>
        <g>
          <circle class="cls-1" cx="75.58" cy="38.32" r="8.12"/>
          <circle class="cls-1" cx="75.58" cy="112.84" r="8.12"/>
        </g>
      </g>
      <line class="cls-4" x1="188.28" y1="118.71" x2="310.97" y2="118.71"/>
    </g>
  </g>
</svg>