<svg width="840" height="683" viewBox="0 0 840 683" fill="none" xmlns="http://www.w3.org/2000/svg">
<path d="M840 640.202C840 645.357 839.346 650.012 838.038 654.167C836.73 658.245 834.999 661.862 832.844 665.016C830.69 668.094 828.189 670.749 825.342 672.98C822.495 675.135 819.494 676.904 816.34 678.289C813.262 679.674 810.107 680.713 806.875 681.406C803.721 682.021 800.72 682.329 797.873 682.329H743.743C739.588 682.329 735.048 681.598 730.124 680.136C725.199 678.674 720.621 676.289 716.389 672.98C712.234 669.595 708.733 665.247 705.886 659.938C703.116 654.552 701.731 647.973 701.731 640.202V599.575C701.731 591.881 703.116 585.379 705.886 580.07C708.733 574.684 712.234 570.337 716.389 567.028C720.621 563.642 725.199 561.219 730.124 559.757C735.048 558.295 739.588 557.564 743.743 557.564H797.873C805.567 557.564 812.108 558.949 817.494 561.719C822.88 564.489 827.227 567.99 830.536 572.222C833.844 576.377 836.23 580.916 837.692 585.841C839.231 590.765 840 595.344 840 599.575V640.202ZM809.992 599.806C809.992 595.651 808.953 592.574 806.875 590.573C804.798 588.572 801.797 587.572 797.873 587.572H743.974C739.972 587.572 736.933 588.611 734.856 590.688C732.778 592.689 731.739 595.651 731.739 599.575V640.202C731.739 644.126 732.778 647.127 734.856 649.204C736.933 651.282 739.972 652.321 743.974 652.321H797.873C801.951 652.321 804.99 651.282 806.991 649.204C808.991 647.127 809.992 644.126 809.992 640.202V599.806Z" fill="white"/>
<path d="M675.416 682.329H645.408V557.564H675.416V682.329Z" fill="white"/>
<path d="M616.323 640.202C616.323 645.357 615.669 650.012 614.361 654.167C613.053 658.245 611.322 661.862 609.167 665.016C607.013 668.094 604.512 670.749 601.665 672.98C598.818 675.135 595.818 676.904 592.663 678.289C589.585 679.674 586.43 680.713 583.199 681.406C580.044 682.021 577.043 682.329 574.196 682.329H520.066C514.911 682.329 510.294 681.675 506.216 680.367C502.138 679.059 498.522 677.328 495.367 675.173C492.289 672.942 489.635 670.403 487.403 667.556C485.249 664.709 483.479 661.746 482.094 658.669C480.709 655.514 479.67 652.359 478.978 649.204C478.362 645.973 478.054 642.972 478.054 640.202V599.575C478.054 591.881 479.439 585.379 482.209 580.07C485.056 574.684 488.557 570.337 492.712 567.028C496.944 563.642 501.522 561.219 506.447 559.757C511.371 558.295 515.911 557.564 520.066 557.564H574.196V587.572H520.297C516.296 587.572 513.256 588.611 511.179 590.688C509.101 592.689 508.063 595.651 508.063 599.575V639.971C508.063 644.049 509.063 647.127 511.064 649.204C513.141 651.282 516.142 652.321 520.066 652.321H574.196C578.274 652.321 581.314 651.282 583.314 649.204C585.315 647.127 586.315 644.126 586.315 640.202V504.819H616.323V640.202Z" fill="white"/>
<path d="M451.278 667.209C451.278 669.364 450.893 671.364 450.124 673.211C449.354 675.058 448.277 676.674 446.892 678.059C445.584 679.367 444.007 680.405 442.16 681.175C440.39 681.944 438.467 682.329 436.389 682.329H368.524C364.831 682.329 360.868 681.906 356.636 681.059C352.481 680.213 348.365 678.866 344.287 677.02C340.209 675.096 336.246 672.711 332.399 669.864C328.629 666.94 325.32 663.439 322.473 659.361C319.626 655.206 317.318 650.436 315.548 645.049C313.855 639.663 313.009 633.585 313.009 626.814V557.564H343.017V626.814C343.017 630.738 343.671 634.277 344.979 637.432C346.364 640.51 348.211 643.164 350.519 645.396C352.828 647.627 355.521 649.358 358.598 650.589C361.753 651.744 365.139 652.321 368.755 652.321H421.27V557.564H451.278V667.209Z" fill="white"/>
<path d="M242.72 682.329V557.564V516.822H212.366V557.564V682.329H242.72Z" fill="white"/>
<path d="M165.392 633.623C165.392 639.548 164.622 644.896 163.083 649.666C161.621 654.36 159.659 658.515 157.197 662.131C154.735 665.747 151.849 668.825 148.541 671.364C145.232 673.904 141.808 675.981 138.269 677.597C134.729 679.213 131.113 680.405 127.42 681.175C123.803 681.944 120.379 682.329 117.148 682.329H1.385V652.321H117.148C122.918 652.321 127.381 650.628 130.536 647.242C133.768 643.857 135.383 639.317 135.383 633.623C135.383 630.853 134.96 628.314 134.114 626.006C133.267 623.697 132.036 621.697 130.42 620.004C128.882 618.311 126.958 617.003 124.65 616.08C122.418 615.157 119.918 614.695 117.148 614.695H48.1286C43.2811 614.695 38.0489 613.849 32.432 612.156C26.8151 610.386 21.5829 607.578 16.7354 603.73C11.9648 599.883 7.96373 594.843 4.73207 588.611C1.57736 582.378 0 574.761 0 565.758C0 556.756 1.57736 549.177 4.73207 543.021C7.96373 536.789 11.9648 531.749 16.7354 527.902C21.5829 523.978 26.8151 521.169 32.432 519.477C38.0489 517.707 43.2811 516.822 48.1286 516.822H150.272V546.83H48.1286C42.4347 546.83 37.972 548.561 34.7403 552.024C31.5856 555.486 30.0082 560.065 30.0082 565.758C30.0082 571.529 31.5856 576.107 34.7403 579.493C37.972 582.802 42.4347 584.456 48.1286 584.456H117.148H117.378C120.61 584.533 124.034 584.995 127.65 585.841C131.267 586.61 134.845 587.841 138.384 589.534C142.001 591.227 145.425 593.381 148.656 595.998C151.888 598.537 154.735 601.614 157.197 605.231C159.736 608.847 161.737 613.002 163.199 617.696C164.661 622.389 165.392 627.699 165.392 633.623Z" fill="white"/>
<path d="M639.06 346.752C639.06 350.907 638.329 355.408 636.867 360.256C635.405 365.026 633.02 369.489 629.712 373.644C626.48 377.722 622.21 381.146 616.9 383.916C611.668 386.686 605.282 388.071 597.741 388.071H543.611V359.563H597.741C601.819 359.563 604.974 358.332 607.205 355.87C609.437 353.331 610.552 350.215 610.552 346.521C610.552 342.597 609.283 339.519 606.744 337.288C604.282 335.057 601.281 333.941 597.741 333.941H543.611C539.533 333.941 536.378 335.211 534.147 337.75C531.916 340.212 530.8 343.29 530.8 346.983V388.879C530.8 392.88 532.031 395.996 534.493 398.228C537.032 400.459 540.149 401.575 543.842 401.575H597.741V430.198H543.611C539.456 430.198 534.955 429.467 530.107 428.005C525.337 426.543 520.874 424.197 516.719 420.965C512.641 417.656 509.217 413.386 506.447 408.154C503.677 402.845 502.292 396.42 502.292 388.879V346.752C502.292 342.597 503.023 338.134 504.485 333.364C505.947 328.516 508.294 324.054 511.525 319.976C514.834 315.821 519.104 312.358 524.337 309.588C529.646 306.818 536.071 305.433 543.611 305.433H597.741C601.896 305.433 606.359 306.164 611.13 307.626C615.977 309.088 620.44 311.473 624.518 314.782C628.673 318.014 632.135 322.284 634.905 327.593C637.675 332.825 639.06 339.212 639.06 346.752Z" fill="white"/>
<path d="M476.208 388.071C476.208 393.226 475.554 397.882 474.246 402.037C472.938 406.115 471.206 409.731 469.052 412.886C466.897 415.963 464.397 418.618 461.55 420.849C458.703 423.004 455.702 424.774 452.547 426.159C449.47 427.544 446.315 428.582 443.083 429.275C439.929 429.89 436.928 430.198 434.081 430.198H379.951C374.795 430.198 370.179 429.544 366.101 428.236C362.023 426.928 358.406 425.197 355.251 423.042C352.174 420.811 349.519 418.272 347.288 415.425C345.133 412.578 343.364 409.616 341.979 406.538C340.594 403.383 339.555 400.228 338.862 397.074C338.247 393.842 337.939 390.841 337.939 388.071V347.445C337.939 339.75 339.324 333.248 342.094 327.939C344.941 322.553 348.442 318.206 352.597 314.897C356.829 311.512 361.407 309.088 366.331 307.626C371.256 306.164 375.796 305.433 379.951 305.433H434.081V335.441H380.181C376.18 335.441 373.141 336.48 371.063 338.558C368.986 340.558 367.947 343.521 367.947 347.445V387.84C367.947 391.918 368.947 394.996 370.948 397.074C373.026 399.151 376.026 400.19 379.951 400.19H434.081C438.159 400.19 441.198 399.151 443.199 397.074C445.199 394.996 446.199 391.995 446.199 388.071V252.688H476.208V388.071Z" fill="white"/>
<path d="M313.702 388.071C313.702 393.226 313.048 397.882 311.74 402.037C310.431 406.115 308.7 409.731 306.546 412.886C304.391 415.963 301.891 418.618 299.044 420.849C296.197 423.004 293.196 424.774 290.041 426.159C286.964 427.544 283.809 428.582 280.577 429.275C277.422 429.89 274.422 430.198 271.575 430.198H217.444C213.289 430.198 208.75 429.467 203.825 428.005C198.901 426.543 194.323 424.158 190.091 420.849C185.936 417.464 182.435 413.117 179.588 407.807C176.818 402.421 175.433 395.843 175.433 388.071V347.445C175.433 339.75 176.818 333.248 179.588 327.939C182.435 322.553 185.936 318.206 190.091 314.897C194.323 311.512 198.901 309.088 203.825 307.626C208.75 306.164 213.289 305.433 217.444 305.433H271.575C279.269 305.433 285.809 306.818 291.195 309.588C296.582 312.358 300.929 315.859 304.237 320.091C307.546 324.246 309.931 328.786 311.393 333.71C312.932 338.635 313.702 343.213 313.702 347.445V388.071ZM283.693 347.676C283.693 343.521 282.655 340.443 280.577 338.442C278.5 336.442 275.499 335.441 271.575 335.441H217.675C213.674 335.441 210.635 336.48 208.557 338.558C206.48 340.558 205.441 343.521 205.441 347.445V388.071C205.441 391.995 206.48 394.996 208.557 397.074C210.635 399.151 213.674 400.19 217.675 400.19H271.575C275.653 400.19 278.692 399.151 280.693 397.074C282.693 394.996 283.693 391.995 283.693 388.071V347.676Z" fill="white"/>
<path d="M154.542 430.198H46.282C43.512 430.198 40.5112 429.89 37.2795 429.275C34.1248 428.582 30.9701 427.544 27.8154 426.159C24.7376 424.774 21.7753 423.004 18.9283 420.849C16.0814 418.618 13.5422 415.963 11.3108 412.886C9.1564 409.731 7.42516 406.115 6.11711 402.037C4.80906 397.882 4.15503 393.226 4.15503 388.071V306.818C4.15503 304.048 4.46281 301.086 5.07836 297.931C5.77086 294.699 6.8096 291.545 8.1946 288.467C9.5796 285.312 11.3878 282.311 13.6192 279.464C15.8505 276.618 18.5051 274.117 21.5829 271.962C24.7376 269.731 28.354 267.961 32.432 266.653C36.5101 265.345 41.1267 264.691 46.282 264.691H154.542V294.699H46.282C42.3578 294.699 39.357 295.738 37.2795 297.816C35.202 299.893 34.1633 302.971 34.1633 307.049V388.071C34.1633 391.918 35.202 394.919 37.2795 397.074C39.434 399.151 42.4348 400.19 46.282 400.19H154.542V430.198Z" fill="white"/>
<path d="M656.95 135.94C656.95 141.096 656.296 145.751 654.988 149.906C653.68 153.984 651.948 157.6 649.794 160.755C647.639 163.833 645.139 166.487 642.292 168.719C639.445 170.873 636.444 172.643 633.289 174.028C630.212 175.413 627.057 176.452 623.825 177.144C620.67 177.76 617.67 178.067 614.823 178.067H560.692C556.537 178.067 551.998 177.336 547.073 175.874C542.149 174.413 537.571 172.027 533.339 168.719C529.184 165.333 525.683 160.986 522.836 155.677C520.066 150.291 518.681 143.712 518.681 135.94V95.3139C518.681 87.6194 520.066 81.1177 522.836 75.8085C525.683 70.4224 529.184 66.0751 533.339 62.7665C537.571 59.3809 542.149 56.9572 547.073 55.4952C551.998 54.0333 556.537 53.3023 560.692 53.3023H614.823C622.517 53.3023 629.057 54.6873 634.443 57.4573C639.83 60.2273 644.177 63.7283 647.486 67.9602C650.794 72.1152 653.179 76.6549 654.641 81.5793C656.18 86.5038 656.95 91.0819 656.95 95.3139V135.94ZM626.941 95.5447C626.941 91.3897 625.903 88.3119 623.825 86.3114C621.748 84.3108 618.747 83.3106 614.823 83.3106H560.923C556.922 83.3106 553.883 84.3493 551.805 86.4268C549.728 88.4274 548.689 91.3897 548.689 95.3139V135.94C548.689 139.865 549.728 142.865 551.805 144.943C553.883 147.02 556.922 148.059 560.923 148.059H614.823C618.901 148.059 621.94 147.02 623.941 144.943C625.941 142.865 626.941 139.865 626.941 135.94V95.5447Z" fill="white"/>
<path d="M501.83 83.3106H434.312C430.234 83.3106 427.156 84.3493 425.078 86.4268C423.001 88.4274 421.962 91.3897 421.962 95.3139V178.067H391.954V95.3139C391.954 90.1586 392.608 85.5419 393.916 81.4639C395.224 77.3859 396.955 73.808 399.11 70.7302C401.341 67.5755 403.88 64.9209 406.727 62.7665C409.574 60.5351 412.536 58.7269 415.614 57.3419C418.769 55.9569 421.924 54.9566 425.078 54.3411C428.31 53.6486 431.311 53.3023 434.081 53.3023H501.83V83.3106Z" fill="white"/>
<path d="M363.792 178.067H333.784V53.3023H363.792V178.067Z" fill="white"/>
<path d="M307.7 136.748C307.7 140.903 306.969 145.405 305.507 150.252C304.045 155.023 301.66 159.485 298.351 163.64C295.12 167.718 290.849 171.142 285.54 173.912C280.308 176.682 273.921 178.067 266.381 178.067H212.251C208.096 178.067 203.594 177.336 198.747 175.874C193.976 174.413 189.514 172.066 185.359 168.834C181.281 165.525 177.857 161.255 175.087 156.023C172.317 150.714 170.932 144.289 170.932 136.748C170.932 132.593 171.663 128.092 173.125 123.245C174.586 118.397 176.933 113.934 180.165 109.856C183.474 105.701 187.744 102.239 192.976 99.4688C198.285 96.6989 204.71 95.3139 212.251 95.3139H266.381V123.937H212.251C208.173 123.937 205.018 125.207 202.787 127.746C200.555 130.208 199.439 133.286 199.439 136.979C199.439 140.903 200.709 143.981 203.248 146.212C205.864 148.367 208.942 149.444 212.482 149.444H266.381C270.459 149.444 273.614 148.213 275.845 145.751C278.076 143.289 279.192 140.211 279.192 136.517V94.6214C279.192 90.6972 277.961 87.581 275.499 85.2726C273.114 82.9643 270.074 81.8102 266.381 81.8102H200.478V53.3023H266.381C270.536 53.3023 274.999 54.0333 279.769 55.4952C284.617 56.9572 289.079 59.3424 293.158 62.651C297.313 65.8827 300.775 70.1531 303.545 75.4623C306.315 80.6945 307.7 87.0808 307.7 94.6214V136.748Z" fill="white"/>
<path d="M154.542 178.067H46.282C43.512 178.067 40.5112 177.76 37.2795 177.144C34.1248 176.452 30.9701 175.413 27.8154 174.028C24.7376 172.643 21.7753 170.873 18.9283 168.719C16.0814 166.487 13.5422 163.833 11.3108 160.755C9.1564 157.6 7.42516 153.984 6.11711 149.906C4.80906 145.751 4.15503 141.096 4.15503 135.94V54.6873C4.15503 51.9173 4.46281 48.955 5.07836 45.8003C5.77086 42.5686 6.8096 39.4139 8.1946 36.3361C9.5796 33.1814 11.3878 30.1806 13.6192 27.3337C15.8505 24.4867 18.5051 21.986 21.5829 19.8316C24.7376 17.6002 28.354 15.8305 32.432 14.5224C36.5101 13.2144 41.1267 12.5604 46.282 12.5604H154.542V42.5686H46.282C42.3578 42.5686 39.357 43.6074 37.2795 45.6849C35.202 47.7624 34.1633 50.8401 34.1633 54.9182V135.94C34.1633 139.788 35.202 142.788 37.2795 144.943C39.434 147.02 42.4348 148.059 46.282 148.059H154.542V178.067Z" fill="white"/>
<path d="M645.408 520.02C645.408 528.723 652.463 535.778 661.166 535.778C669.869 535.778 676.925 528.723 676.925 520.02C676.925 511.317 669.869 504.262 661.166 504.262C652.463 504.262 645.408 511.317 645.408 520.02Z" fill="#CC1A1A"/>
<path d="M365.3 15.7582C365.3 7.05517 358.245 0 349.542 0C340.839 0 333.784 7.05517 333.784 15.7582C333.784 24.4612 340.839 31.5163 349.542 31.5163C358.245 31.5163 365.3 24.4612 365.3 15.7582Z" fill="#CC1A1A"/>
<path d="M283.647 682.329L242.676 682.329L242.676 652.388L283.647 652.388L283.647 682.329Z" fill="white"/>
<path d="M173.34 573.598H294.678V603.538H173.34V573.598Z" fill="white"/>
</svg>
