<svg width="424" height="152" viewBox="0 0 424 152" fill="none" xmlns="http://www.w3.org/2000/svg">
<path d="M198.57 84.2099C195.91 84.2099 193.84 83.5499 192.33 82.2199C190.83 80.8899 189.77 78.9499 189.17 76.3899C188.57 73.8299 188.27 70.6899 188.27 66.9799V44.6099C188.27 42.2399 188.41 40.0599 188.69 38.0599C188.97 36.0599 189.48 34.3199 190.21 32.8299C190.95 31.3499 192 30.1999 193.38 29.3799C194.76 28.5599 196.56 28.1499 198.78 28.1499C201 28.1499 202.7 28.5599 204.01 29.3599C205.32 30.1699 206.3 31.2999 206.97 32.7499C207.64 34.1999 208.07 35.9199 208.29 37.8999C208.51 39.8799 208.62 42.0499 208.62 44.4199V49.8599H203.02V44.1399C203.02 40.4499 202.77 37.6599 202.27 35.7699C201.77 33.8799 200.6 32.9399 198.75 32.9399C196.9 32.9399 195.53 33.8899 194.88 35.7899C194.23 37.6899 193.9 40.4599 193.9 44.1099V67.0399C193.9 70.0099 194.02 72.4099 194.26 74.2399C194.5 76.0699 194.96 77.4099 195.63 78.2399C196.3 79.0699 197.28 79.4799 198.57 79.4799C200.44 79.4799 201.65 78.5199 202.19 76.5899C202.74 74.6599 203.01 71.4799 203.01 67.0399V61.7199H208.64V66.9799C208.64 70.7099 208.36 73.8599 207.8 76.4199C207.24 78.9799 206.23 80.9199 204.78 82.2399C203.33 83.5599 201.25 84.2199 198.56 84.2199L198.57 84.2099Z" fill="white"/>
<path d="M223.59 83.9298C220.93 83.9298 218.98 82.8598 217.74 80.7298C216.49 78.5898 215.86 75.5898 215.84 71.7098V66.5098C215.84 64.6398 216.19 63.0698 216.9 61.7998C217.6 60.5198 218.59 59.4398 219.86 58.5498C221.13 57.6598 222.61 56.8398 224.31 56.0898C226.01 55.3398 227.86 54.5698 229.85 53.7598V50.3398C229.85 48.1798 229.79 46.4198 229.66 45.0698C229.54 43.7098 229.2 42.7098 228.66 42.0698C228.12 41.4298 227.25 41.1098 226.05 41.1098C224.85 41.1098 223.99 41.4298 223.4 42.0598C222.82 42.6898 222.45 43.6998 222.28 45.0798C222.11 46.4598 222.03 48.2698 222.03 50.5098V51.9098H216.43V50.6298C216.43 48.6798 216.53 46.8398 216.72 45.1198C216.92 43.3998 217.33 41.8798 217.97 40.5798C218.61 39.2798 219.57 38.2398 220.86 37.4798C222.16 36.7198 223.9 36.3398 226.1 36.3398C228.3 36.3398 229.96 36.6898 231.2 37.3798C232.45 38.0798 233.37 39.1098 233.99 40.4798C234.6 41.8498 235 43.5298 235.19 45.5198C235.38 47.5098 235.47 49.8098 235.47 52.4298V83.5698H229.84V79.7698C229.67 80.2898 229.34 80.8698 228.83 81.5298C228.32 82.1798 227.64 82.7498 226.78 83.2298C225.92 83.7098 224.86 83.9398 223.59 83.9398V83.9298ZM224.96 79.3598C226.14 79.3598 227.17 79.0098 228.06 78.2998C228.94 77.5898 229.54 76.8998 229.85 76.2198V57.7098C228.09 58.4798 226.65 59.1598 225.56 59.7498C224.46 60.3398 223.62 60.9598 223.02 61.5998C222.43 62.2398 222.02 63.0198 221.81 63.9198C221.6 64.8198 221.48 65.9698 221.48 67.3598V71.3998C221.48 74.2598 221.71 76.3098 222.18 77.5298C222.65 78.7498 223.57 79.3698 224.97 79.3698L224.96 79.3598Z" fill="white"/>
<path d="M244.22 32.5998V27.3398H249.85V32.5998H244.22ZM244.22 83.5598V36.8898H249.85V83.5598H244.22Z" fill="white"/>
<path d="M259.43 83.5598V36.8898H265.03V42.0898C265.57 40.2898 266.51 38.8798 267.85 37.8598C269.19 36.8398 270.89 36.3398 272.97 36.3398C273.01 36.3398 273.04 36.5798 273.05 37.0598C273.05 37.5398 273.07 38.0898 273.07 38.7198V41.0998C272.07 41.0998 271.09 41.2198 270.13 41.4698C269.17 41.7198 268.26 42.1398 267.41 42.7498C266.56 43.3598 265.77 44.1898 265.05 45.2698V83.5698H259.45L259.43 83.5598Z" fill="white"/>
<path d="M287.93 84.1201C285.75 84.1201 284.01 83.7301 282.7 82.9501C281.39 82.1701 280.4 81.0601 279.71 79.6201C279.02 78.1801 278.57 76.4701 278.36 74.4901C278.15 72.5101 278.03 70.3001 278.03 67.8801V51.7301C278.03 48.8101 278.27 46.1801 278.75 43.8601C279.23 41.5401 280.18 39.7001 281.6 38.3501C283.02 37.0001 285.13 36.3301 287.93 36.3301C290.05 36.3301 291.75 36.7101 293.03 37.4801C294.31 38.2501 295.3 39.3301 295.97 40.7301C296.64 42.1301 297.09 43.7601 297.32 45.6301C297.55 47.5001 297.66 49.5301 297.66 51.7301V67.8801C297.66 70.2701 297.56 72.4401 297.37 74.4101C297.17 76.3801 296.75 78.0901 296.11 79.5401C295.47 80.9901 294.49 82.1201 293.19 82.9201C291.88 83.7201 290.13 84.1201 287.93 84.1201ZM287.93 79.3601C289.13 79.3601 290.02 78.9501 290.61 78.1301C291.19 77.3101 291.58 76.1701 291.78 74.6901C291.98 73.2201 292.08 71.5101 292.08 69.5601V50.5501C292.08 48.6601 291.98 47.0101 291.78 45.6001C291.58 44.1901 291.19 43.0901 290.61 42.2901C290.03 41.4901 289.14 41.0901 287.93 41.0901C286.66 41.0901 285.73 41.4901 285.11 42.2901C284.5 43.0901 284.1 44.1901 283.91 45.6001C283.72 47.0101 283.63 48.6601 283.63 50.5501V69.5601C283.63 71.5101 283.72 73.2201 283.91 74.6901C284.1 76.1601 284.5 77.3101 285.12 78.1301C285.74 78.9501 286.68 79.3601 287.92 79.3601H287.93Z" fill="white"/>
<path d="M330.81 84.2099C328.15 84.2099 326.08 83.5499 324.57 82.2199C323.07 80.8899 322.01 78.9499 321.41 76.3899C320.81 73.8299 320.51 70.6899 320.51 66.9799V44.6099C320.51 42.2399 320.65 40.0599 320.93 38.0599C321.21 36.0599 321.72 34.3199 322.45 32.8299C323.19 31.3499 324.24 30.1999 325.62 29.3799C327 28.5599 328.8 28.1499 331.02 28.1499C333.24 28.1499 334.94 28.5599 336.25 29.3599C337.56 30.1699 338.54 31.2999 339.21 32.7499C339.88 34.1999 340.31 35.9199 340.53 37.8999C340.75 39.8799 340.86 42.0499 340.86 44.4199V49.8599H335.26V44.1399C335.26 40.4499 335.01 37.6599 334.51 35.7699C334.01 33.8799 332.84 32.9399 330.99 32.9399C329.14 32.9399 327.77 33.8899 327.12 35.7899C326.47 37.6899 326.14 40.4599 326.14 44.1099V67.0399C326.14 70.0099 326.26 72.4099 326.5 74.2399C326.74 76.0699 327.2 77.4099 327.87 78.2399C328.54 79.0699 329.52 79.4799 330.81 79.4799C332.68 79.4799 333.89 78.5199 334.43 76.5899C334.98 74.6599 335.25 71.4799 335.25 67.0399V61.7199H340.88V66.9799C340.88 70.7099 340.6 73.8599 340.04 76.4199C339.48 78.9799 338.47 80.9199 337.02 82.2399C335.57 83.5599 333.49 84.2199 330.8 84.2199L330.81 84.2099Z" fill="white"/>
<path d="M358.19 84.1201C356.01 84.1201 354.27 83.7301 352.96 82.9501C351.65 82.1701 350.66 81.0601 349.97 79.6201C349.28 78.1801 348.83 76.4701 348.62 74.4901C348.41 72.5101 348.29 70.3001 348.29 67.8801V51.7301C348.29 48.8101 348.53 46.1801 349.01 43.8601C349.49 41.5401 350.44 39.7001 351.86 38.3501C353.28 37.0001 355.39 36.3301 358.19 36.3301C360.31 36.3301 362.01 36.7101 363.29 37.4801C364.57 38.2501 365.56 39.3301 366.23 40.7301C366.9 42.1301 367.35 43.7601 367.58 45.6301C367.81 47.5001 367.92 49.5301 367.92 51.7301V67.8801C367.92 70.2701 367.82 72.4401 367.63 74.4101C367.43 76.3801 367.01 78.0901 366.37 79.5401C365.73 80.9901 364.75 82.1201 363.45 82.9201C362.14 83.7201 360.39 84.1201 358.19 84.1201ZM358.19 79.3601C359.39 79.3601 360.28 78.9501 360.87 78.1301C361.45 77.3101 361.84 76.1701 362.04 74.6901C362.24 73.2201 362.34 71.5101 362.34 69.5601V50.5501C362.34 48.6601 362.24 47.0101 362.04 45.6001C361.84 44.1901 361.45 43.0901 360.87 42.2901C360.29 41.4901 359.4 41.0901 358.19 41.0901C356.92 41.0901 355.99 41.4901 355.37 42.2901C354.76 43.0901 354.36 44.1901 354.17 45.6001C353.98 47.0101 353.89 48.6601 353.89 50.5501V69.5601C353.89 71.5101 353.98 73.2201 354.17 74.6901C354.36 76.1601 354.76 77.3101 355.38 78.1301C356 78.9501 356.94 79.3601 358.18 79.3601H358.19Z" fill="white"/>
<path d="M383.45 83.9299C381.23 83.9299 379.57 83.2599 378.47 81.9199C377.37 80.5799 376.64 78.7599 376.29 76.4399C375.94 74.1299 375.76 71.5199 375.76 68.6099V51.4999C375.76 48.6199 375.99 46.0299 376.46 43.7399C376.93 41.4499 377.8 39.6399 379.07 38.3099C380.35 36.9799 382.17 36.3199 384.53 36.3199C385.69 36.3199 386.74 36.6899 387.67 37.4199C388.6 38.1499 389.3 39.0399 389.75 40.0799V28.1299H395.38V83.5399H389.75V79.7799C389.13 81.2899 388.24 82.3599 387.09 82.9899C385.94 83.6099 384.72 83.9199 383.43 83.9199L383.45 83.9299ZM385.29 79.3299C386.26 79.3299 387.09 79.1099 387.76 78.6599C388.43 78.2099 388.94 77.3099 389.28 75.9399C389.62 74.5699 389.79 72.5299 389.79 69.8099V51.0799C389.79 47.7199 389.53 45.2299 389 43.5999C388.47 41.9699 387.29 41.1599 385.47 41.1599C383.83 41.1799 382.74 41.9799 382.2 43.5699C381.66 45.1599 381.39 47.7199 381.39 51.2699V69.9399C381.39 71.8299 381.47 73.4799 381.64 74.8899C381.81 76.2999 382.17 77.3899 382.73 78.1699C383.29 78.9499 384.14 79.3399 385.28 79.3399L385.29 79.3299Z" fill="white"/>
<path d="M413.57 84.1198C411.39 84.1198 409.65 83.7298 408.34 82.9398C407.03 82.1498 406.05 81.0298 405.4 79.5798C404.75 78.1298 404.32 76.3998 404.12 74.3998C403.92 72.3998 403.82 70.1798 403.82 67.7598V51.6398C403.82 49.4398 403.94 47.4098 404.19 45.5598C404.44 43.6998 404.92 42.0898 405.62 40.7098C406.33 39.3298 407.33 38.2598 408.64 37.4898C409.95 36.7198 411.65 36.3398 413.74 36.3398C415.83 36.3398 417.56 36.7298 418.8 37.5098C420.03 38.2898 420.95 39.3798 421.55 40.7898C422.15 42.1998 422.54 43.8498 422.72 45.7498C422.9 47.6498 422.98 49.7298 422.98 51.9898V60.3298H409.41V69.6598C409.41 72.8998 409.63 75.3198 410.06 76.9398C410.5 78.5598 411.66 79.3698 413.55 79.3698C414.79 79.3698 415.68 78.9798 416.21 78.1998C416.74 77.4198 417.07 76.3198 417.19 74.8998C417.31 73.4798 417.38 71.7798 417.38 69.8098V66.1698H422.86V67.9398C422.86 70.3498 422.79 72.5298 422.64 74.5098C422.49 76.4798 422.13 78.1898 421.55 79.6298C420.97 81.0698 420.05 82.1798 418.78 82.9598C417.51 83.7398 415.77 84.1298 413.55 84.1298L413.57 84.1198ZM409.43 56.1798H417.4V50.2398C417.4 48.2498 417.35 46.5698 417.24 45.2198C417.13 43.8698 416.83 42.8298 416.32 42.1198C415.81 41.4098 414.97 41.0598 413.78 41.0598C412.49 41.0598 411.54 41.4498 410.92 42.2398C410.3 43.0298 409.89 44.1298 409.71 45.5398C409.52 46.9498 409.43 48.5998 409.43 50.4898V56.1798Z" fill="white"/>
<path d="M330.72 138.49C329.13 138.49 327.86 138.19 326.89 137.58C325.93 136.97 325.19 136.13 324.7 135.04C324.21 133.96 323.87 132.69 323.7 131.23C323.53 129.78 323.44 128.19 323.44 126.47V122.52H327.39V126.54C327.39 129.58 327.61 131.76 328.04 133.08C328.47 134.41 329.41 135.07 330.85 135.07C331.84 135.07 332.56 134.83 333.01 134.35C333.46 133.87 333.74 133.11 333.86 132.07C333.98 131.03 334.04 129.67 334.04 127.99C334.04 126.1 333.76 124.53 333.19 123.26C332.62 122 331.72 120.78 330.5 119.61L328.03 117.21C327.3 116.49 326.56 115.69 325.81 114.81C325.06 113.93 324.44 112.91 323.93 111.75C323.43 110.59 323.18 109.26 323.18 107.76C323.18 105.81 323.37 104.11 323.75 102.65C324.13 101.19 324.85 100.05 325.92 99.24C326.98 98.42 328.52 98.02 330.52 98.02C332.14 98.02 333.41 98.31 334.35 98.9C335.29 99.49 335.97 100.3 336.42 101.36C336.86 102.41 337.15 103.66 337.27 105.1C337.4 106.54 337.46 108.11 337.46 109.81V112.1H333.67V109.52C333.67 107.56 333.59 105.99 333.42 104.82C333.25 103.65 332.95 102.79 332.51 102.26C332.07 101.73 331.41 101.46 330.55 101.46C329.76 101.46 329.11 101.64 328.6 102C328.09 102.36 327.73 102.95 327.5 103.79C327.28 104.62 327.16 105.76 327.16 107.21C327.16 108.36 327.29 109.3 327.56 110.02C327.83 110.74 328.24 111.4 328.78 112.01C329.33 112.62 330 113.33 330.79 114.15L333.26 116.69C334.71 118.17 335.88 119.81 336.76 121.62C337.64 123.42 338.08 125.58 338.08 128.1C338.08 130.2 337.89 132.03 337.5 133.59C337.11 135.15 336.39 136.36 335.33 137.22C334.27 138.07 332.74 138.5 330.72 138.5V138.49Z" fill="white"/>
<path d="M344.33 138.04V101.82H340.09V98.52H352.28V101.82H348.37V138.04H344.33Z" fill="white"/>
<path d="M363.34 138.51C361.44 138.51 359.95 138.12 358.86 137.35C357.77 136.58 357.01 135.41 356.56 133.84C356.11 132.27 355.89 130.28 355.89 127.89V98.52H359.95V127.78C359.95 129.32 360.01 130.64 360.12 131.74C360.23 132.84 360.53 133.67 361.01 134.24C361.49 134.81 362.27 135.09 363.34 135.09C364.41 135.09 365.23 134.81 365.7 134.24C366.16 133.67 366.44 132.84 366.54 131.75C366.64 130.66 366.69 129.34 366.69 127.8V98.52H370.73V127.89C370.73 130.28 370.51 132.27 370.08 133.84C369.65 135.41 368.89 136.58 367.82 137.35C366.75 138.12 365.26 138.51 363.34 138.51Z" fill="white"/>
<path d="M377.29 138.04V98.52H384.12C386.22 98.52 387.83 98.97 388.96 99.86C390.09 100.75 390.87 102.02 391.29 103.65C391.72 105.29 391.93 107.24 391.93 109.5L391.95 126.65C391.95 129.34 391.69 131.53 391.18 133.21C390.67 134.89 389.82 136.11 388.65 136.88C387.48 137.65 385.92 138.04 383.96 138.04H377.29ZM381.33 134.67H383.89C384.79 134.67 385.53 134.47 386.11 134.06C386.69 133.66 387.14 132.9 387.44 131.78C387.74 130.66 387.89 129.04 387.89 126.9V109.28C387.89 106.6 387.58 104.69 386.95 103.53C386.32 102.38 385.33 101.8 383.99 101.8H381.34V134.67H381.33Z" fill="white"/>
<path d="M398.32 138.04V98.52H402.38V138.04H398.32Z" fill="white"/>
<path d="M416.24 138.49C414.29 138.49 412.78 138.06 411.69 137.19C410.61 136.32 409.85 135.01 409.41 133.24C408.98 131.47 408.76 129.24 408.76 126.55V109.4C408.76 107.12 408.95 105.14 409.34 103.44C409.73 101.74 410.47 100.42 411.56 99.4698C412.65 98.5198 414.25 98.0498 416.36 98.0498C417.95 98.0498 419.22 98.3198 420.18 98.8598C421.14 99.3998 421.86 100.17 422.36 101.17C422.85 102.17 423.19 103.37 423.36 104.76C423.53 106.15 423.62 107.7 423.62 109.41V126.56C423.62 129.25 423.41 131.48 422.99 133.25C422.57 135.02 421.83 136.33 420.76 137.2C419.69 138.07 418.18 138.5 416.24 138.5V138.49ZM416.24 135.05C417.14 135.05 417.83 134.79 418.31 134.28C418.79 133.77 419.12 132.89 419.3 131.65C419.48 130.41 419.57 128.72 419.57 126.56V109.11C419.57 106.48 419.37 104.54 418.97 103.32C418.57 102.09 417.71 101.48 416.38 101.48C415.05 101.48 414.05 102.09 413.56 103.32C413.07 104.55 412.83 106.47 412.83 109.09V126.56C412.83 128.72 412.92 130.41 413.1 131.65C413.28 132.88 413.62 133.76 414.11 134.28C414.6 134.8 415.31 135.05 416.24 135.05Z" fill="white"/>
<path d="M115.15 0H36.02C16.1267 0 0 16.1267 0 36.02V115.15C0 135.043 16.1267 151.17 36.02 151.17H115.15C135.043 151.17 151.17 135.043 151.17 115.15V36.02C151.17 16.1267 135.043 0 115.15 0Z" fill="#E80863"/>
<path d="M52.9572 49.6764C55.8861 46.7479 60.6348 46.7478 63.5636 49.6764C66.4926 52.6054 66.4926 57.3549 63.5636 60.2839L48.2668 75.5798L63.5636 90.8766C66.4925 93.8055 66.4924 98.5541 63.5636 101.483C60.6347 104.412 55.8861 104.412 52.9572 101.483L32.3566 80.8835C29.428 77.9546 29.428 73.2059 32.3566 70.277L52.9572 49.6764Z" fill="white"/>
<path d="M87.6064 49.6762C90.5353 46.7473 95.2849 46.7473 98.2138 49.6762L118.813 70.2768C121.742 73.2057 121.742 77.9543 118.813 80.8832L98.2138 101.483C95.2849 104.412 90.5353 104.412 87.6064 101.483C84.6779 98.5539 84.6777 93.8052 87.6064 90.8764L102.903 75.5795L87.6064 60.2836C84.6774 57.3547 84.6774 52.6051 87.6064 49.6762Z" fill="white"/>
<path d="M75.58 46.4402C80.0645 46.4402 83.7 42.8047 83.7 38.3202C83.7 33.8356 80.0645 30.2002 75.58 30.2002C71.0954 30.2002 67.46 33.8356 67.46 38.3202C67.46 42.8047 71.0954 46.4402 75.58 46.4402Z" fill="white"/>
<path d="M75.58 120.96C80.0645 120.96 83.7 117.325 83.7 112.84C83.7 108.356 80.0645 104.72 75.58 104.72C71.0954 104.72 67.46 108.356 67.46 112.84C67.46 117.325 71.0954 120.96 75.58 120.96Z" fill="white"/>
<path d="M188.28 118.71H310.97" stroke="white" stroke-width="3" stroke-miterlimit="10"/>
</svg>
