<svg width="1189" height="513" viewBox="0 0 1189 513" fill="none" xmlns="http://www.w3.org/2000/svg">
<rect width="1188.84" height="512.499" rx="110" fill="#000106"/>
<path d="M649.766 308.439V204.115H770.688V181.746H624.433V330.787H770.688V308.439H649.766ZM667.88 266.283H751.529V243.914H667.88V266.283Z" fill="white"/>
<path d="M987.827 308.217V181.756H962.269V330.798H1097.68V308.224H987.827V308.217Z" fill="white"/>
<path d="M528.539 308.442C514.134 308.442 501.095 302.596 491.656 293.17C482.217 283.724 476.377 270.692 476.377 256.287C476.377 227.478 499.729 204.125 528.539 204.125H599.717V181.756H527.958C507.379 181.756 488.753 190.103 475.263 203.592C461.774 217.082 453.448 235.708 453.448 256.287C453.448 297.446 486.806 330.798 527.958 330.798H599.717V308.449H528.539V308.442Z" fill="white"/>
<path d="M818.679 308.439V204.115H939.601V181.746H793.346V330.787H939.601V308.439H818.679ZM836.786 266.283H920.436V243.914H836.786V266.283Z" fill="white"/>
<path d="M271.737 431.284H260.297L264.279 332.506C264.859 332.54 265.44 332.54 266.021 332.54C266.601 332.54 267.182 332.54 267.762 332.506L271.744 431.284H271.737Z" fill="white"/>
<path d="M250.74 331.001L232.646 428.167L221.513 425.619L247.379 330.222C248.493 330.509 249.62 330.769 250.746 330.994L250.74 331.001Z" fill="white"/>
<path d="M234.499 325.734L195.246 416.425L184.946 411.48L231.371 324.225C232.402 324.757 233.433 325.256 234.499 325.741V325.734Z" fill="white"/>
<path d="M219.848 316.965L161.368 396.667L152.44 389.529L217.136 314.807C218.024 315.552 218.926 316.276 219.841 316.965H219.848Z" fill="white"/>
<path d="M207.491 305.157L132.768 369.852L125.631 360.925L205.346 302.466C206.036 303.388 206.746 304.289 207.491 305.157Z" fill="white"/>
<path d="M198.081 290.93L110.839 337.355L105.873 327.055L196.578 287.815C197.043 288.86 197.548 289.912 198.074 290.923L198.081 290.93Z" fill="white"/>
<path d="M192.068 274.926L96.6707 300.792L94.1436 289.659L191.296 271.565C191.522 272.706 191.781 273.819 192.068 274.933V274.926Z" fill="white"/>
<path d="M189.759 256.28C189.759 256.86 189.759 257.441 189.794 258.022L91.0151 262.004V250.563L189.794 254.545C189.759 255.126 189.759 255.706 189.759 256.287V256.28Z" fill="white"/>
<path d="M192.068 237.638C191.775 238.752 191.522 239.865 191.296 241.006L94.1436 222.906L96.6707 211.772L192.068 237.638Z" fill="white"/>
<path d="M198.081 221.639C197.548 222.67 197.05 223.702 196.565 224.767L105.873 185.514L110.839 175.214L198.081 221.639Z" fill="white"/>
<path d="M207.491 207.411C206.746 208.279 206.043 209.187 205.346 210.102L125.631 151.636L132.768 142.709L207.491 207.404V207.411Z" fill="white"/>
<path d="M219.848 195.593C218.933 196.283 218.024 197.014 217.143 197.752L152.44 123.036L161.368 115.899L219.848 195.6V195.593Z" fill="white"/>
<path d="M234.499 186.833C233.433 187.318 232.402 187.816 231.371 188.349L184.946 101.107L195.246 96.1416L234.499 186.833Z" fill="white"/>
<path d="M250.738 181.565C249.611 181.79 248.484 182.049 247.371 182.336L221.505 86.9393L232.638 84.4121L250.731 181.565H250.738Z" fill="white"/>
<path d="M271.737 81.2837L267.755 180.062C267.175 180.028 266.594 180.028 266.014 180.028C265.433 180.028 264.853 180.028 264.272 180.062L260.297 81.2837H271.737Z" fill="white"/>
<path d="M310.523 86.9393L284.657 182.336C283.544 182.043 282.431 181.79 281.304 181.565L299.383 84.4121L310.517 86.9393H310.523Z" fill="white"/>
<path d="M347.087 101.107L300.662 188.349C299.645 187.816 298.6 187.318 297.555 186.833L336.808 96.1416L347.087 101.107Z" fill="white"/>
<path d="M379.587 123.036L314.891 197.759C314.023 197.014 313.115 196.311 312.2 195.614L370.659 115.899L379.587 123.036Z" fill="white"/>
<path d="M406.4 151.636L326.698 210.096C325.988 209.18 325.278 208.272 324.54 207.391L399.276 142.709L406.4 151.636Z" fill="white"/>
<path d="M406.4 360.925L399.263 369.852L324.54 305.171C325.285 304.283 325.988 303.381 326.685 302.466L406.4 360.925Z" fill="white"/>
<path d="M379.587 389.529L370.659 396.667L312.2 316.952C313.115 316.262 314.023 315.552 314.891 314.807L379.587 389.529Z" fill="white"/>
<path d="M347.087 411.475L336.808 416.42L297.555 325.729C298.6 325.244 299.652 324.745 300.662 324.212L347.087 411.468V411.475Z" fill="white"/>
<path d="M310.524 425.628L299.391 428.155L281.312 331.003C282.439 330.777 283.552 330.518 284.665 330.231L310.531 425.628H310.524Z" fill="white"/>
</svg>
