<?xml version="1.0" encoding="UTF-8"?>
<svg width="61px" height="41px" viewBox="0 0 61 41" version="1.1" xmlns="http://www.w3.org/2000/svg" xmlns:xlink="http://www.w3.org/1999/xlink">
    <title>F562D5FB-E76C-4BDE-A571-0E441D1D1798</title>
    <g id="Design-System" stroke="none" stroke-width="1" fill="none" fill-rule="evenodd">
        <g id="Illustration" transform="translate(-223.000000, -213.000000)">
            <g id="logo/Maneh" transform="translate(223.765926, 213.138622)">
                <g id="LogoAR" transform="translate(0.000000, 7.000000)">
                    <path d="M49.326412,22.9096921 C50.1291521,22.8715271 50.8531718,23.6645118 50.8376349,24.4850601 C50.8241696,25.2017146 50.174727,25.9957594 49.331591,26 C48.5547458,26 47.7892943,25.363916 47.7892943,24.454316 C47.7903301,23.4938292 48.6023923,22.8609257 49.326412,22.9096921 Z M52.7942491,22.9001509 C53.5193046,22.9001509 54.3282594,23.5203327 54.3189373,24.4659775 C54.3096151,25.3766377 53.55245,26.0159021 52.834645,25.9915189 C51.9324688,26.0445259 51.2809546,25.212316 51.2695609,24.4723384 C51.2602387,23.6634516 51.96665,22.9033313 52.7942491,22.9001509 Z M26.7595765,22.9022711 C27.4773815,22.9234739 28.2252245,23.5934824 28.2252245,24.4596167 C28.2252245,25.2313986 27.5447081,26.0413455 26.6736057,25.9915189 C25.8864025,26.0180224 25.1447743,25.2865258 25.1748123,24.4076698 C25.2145424,23.5479646 25.9189883,22.8787976 26.7595765,22.9022711 Z M30.1725165,22.8990907 C30.8861783,22.8990907 31.7054911,23.5065509 31.7013635,24.4585566 C31.6972047,25.3607356 30.9338248,26.0413455 30.1569796,25.9893986 C29.3283447,26.0243832 28.634363,25.1858125 28.6571504,24.4055496 C28.6789021,23.6804139 29.3500964,22.9022711 30.1725165,22.8990907 Z M15.0323212,10.5018145 C15.5315738,10.6078285 15.8609561,10.9364718 16.0453274,11.4156551 C16.0847089,11.5291502 16.1063808,11.6482852 16.1095466,11.7686817 C16.1209403,11.9807097 16.1188687,12.2022789 16.1178329,12.4185475 C16.1109276,13.839135 16.1040224,15.2600758 16.0971171,16.6813701 C16.0830821,16.9705312 16.1181274,17.259994 16.2006964,17.536903 C16.2932362,17.8700506 16.5689298,18.1160696 16.9040003,18.1645058 C17.0877269,18.2072277 17.2743632,18.2355799 17.4622931,18.249317 C18.0506238,18.2609786 18.6389546,18.2652191 19.2231422,18.249317 C19.4347103,18.2345673 19.6435649,18.1921708 19.8446184,18.1231604 C20.0071153,18.0774407 20.1377163,17.9536569 20.1947166,17.7913366 C20.2532791,17.6346713 20.2946202,17.4718204 20.3179761,17.3057925 C20.3349026,17.0896319 20.3400896,16.872676 20.333513,16.6559267 C20.333513,15.2346325 20.3317866,13.8136916 20.328334,12.3931041 L20.328334,11.8153278 L20.328334,11.8153278 C20.3438709,11.1198761 20.9498102,10.4986341 21.6500066,10.46789 C22.3885592,10.4281656 23.0315457,10.979359 23.1229052,11.7305166 C23.1413385,11.9221448 23.1461849,12.1148879 23.1374063,12.3072328 C23.1374063,13.6797606 23.1332631,15.0526418 23.1249767,16.4258764 C23.1249767,16.6668815 23.131882,16.9075333 23.1456926,17.1478316 C23.1514817,17.2681982 23.1713023,17.3874257 23.2047329,17.5029785 C23.3083122,17.8507044 23.5258289,18.0924163 23.8873208,18.1549646 C24.1642327,18.2102507 24.4445791,18.2456749 24.7263137,18.2609786 C25.2908212,18.2768807 25.8553287,18.2609786 26.420872,18.2662793 C26.6799889,18.2658345 26.9377247,18.2276398 27.1863235,18.1528443 C27.4450216,18.0873322 27.6403789,17.869851 27.6824687,17.6005114 C27.7397037,17.2927729 27.7650484,16.9797115 27.7580816,16.6665281 L27.7580816,12.3305558 C27.7580816,12.1185279 27.7580816,11.8969586 27.7798333,11.6817502 C27.8295513,11.0456663 28.4396338,10.4816718 29.0704321,10.4742508 C29.6846577,10.4668299 30.1725165,10.7657893 30.4097132,11.339325 C30.4631871,11.4721603 30.4960387,11.6127364 30.5070778,11.75596 C30.5246863,11.967988 30.5174358,12.1895572 30.5174358,12.4058258 L30.5174358,16.5244694 L30.5174358,16.5244694 C30.5162566,16.7647217 30.5363643,17.0045886 30.5775118,17.241124 C30.6696974,17.7436303 30.9835429,18.0468303 31.4662227,18.1496639 C31.7414251,18.2133006 32.022121,18.2488128 32.3041798,18.2556779 C34.0453488,18.2652191 35.7865179,18.2556779 37.5287228,18.2556779 L37.5991567,18.2556779 L37.5991567,18.2556779 C37.6454536,18.2552407 37.6893121,18.2343685 37.7194757,18.1984183 C37.7496392,18.162468 37.7631708,18.1149401 37.7565974,18.0680331 C37.7151656,17.8803883 37.6602686,17.6948638 37.6291947,17.5050988 C37.4634678,16.5149281 37.4914342,15.5374791 37.8581051,14.5918343 C38.2444562,13.5963629 38.8669681,12.8033782 39.796075,12.2870901 C40.3122078,11.9929715 40.8880683,11.8256614 41.4782038,11.7983656 C41.9950071,11.7606717 42.5144209,11.7992313 43.0205005,11.9128607 C43.9273478,12.1271096 44.7115075,12.7065041 45.1956671,13.5200328 C45.4445788,13.9299548 45.6235609,14.3802199 45.7249576,14.8515686 C45.8497613,15.3662453 45.9130625,15.894525 45.9134721,16.4248162 C45.9072573,16.7863239 45.9134721,17.1478316 45.9134721,17.5082792 L45.9134721,18.013966 L45.9134721,18.013966 C45.9086534,18.1375438 46.0001587,18.2429069 46.1206308,18.2524974 C46.4313689,18.2588583 46.731749,18.264159 47.0373082,18.2620387 C48.2374477,18.2535576 49.437242,18.2429562 50.636691,18.2302345 L51.1307645,18.2302345 L51.1307645,18.2302345 C51.5140082,18.2238737 51.539903,18.1994905 51.545082,17.8337422 L51.545082,11.8397111 L51.545082,11.8397111 C51.5788887,11.0670889 52.2034767,10.460081 52.9590935,10.4654992 C53.7147104,10.4709174 54.3309275,11.0868226 54.3541543,11.8598537 L54.3541543,20.461829 L54.3541543,20.461829 C54.3541543,20.7077815 54.2930424,20.7745703 54.0796689,20.779871 L43.0049636,20.779871 L43.0049636,20.7788109 L32.7682153,20.7788109 L32.7682153,20.7788109 C32.4574772,20.7788109 32.1560613,20.7788109 31.8505022,20.7576081 C31.3795556,20.7169947 30.9261399,20.5558633 30.5319369,20.2890262 C30.3123486,20.151208 30.2211988,19.8776919 29.9653578,19.7865199 C29.7581991,19.9497815 29.5707204,20.127885 29.3552753,20.272064 C28.9119557,20.5699633 28.4054526,20.6780976 27.8885916,20.7448864 C27.7717044,20.7588452 27.6541007,20.7655716 27.5364218,20.7650291 C26.5482746,20.7699764 25.5597823,20.7731568 24.5709446,20.7745703 C24.4531419,20.7748842 24.3354629,20.7667364 24.2187748,20.7501871 C23.6428736,20.6674962 23.1218694,20.4756109 22.7603774,19.9709843 C22.7206305,19.9122735 22.6720347,19.8603885 22.6164021,19.817264 C22.5760582,19.8035211 22.5324507,19.8035211 22.4921068,19.817264 C22.4724268,19.817264 22.4548183,19.8448276 22.4382456,19.86285 C21.8903108,20.4628892 21.1787205,20.6770375 20.4122333,20.7533675 C20.2247546,20.77245 20.0362402,20.7777507 19.8477257,20.7788109 C19.118527,20.7823447 18.3889831,20.7823447 17.6590938,20.7788109 C17.3530469,20.7794067 17.0482775,20.7384098 16.7527744,20.6568948 C16.3846158,20.5652693 16.0540609,20.3571551 15.8081306,20.0621563 C15.7335535,19.9709843 15.6537974,19.8851129 15.5730055,19.8003017 C15.5626476,19.7886402 15.5243232,19.795001 15.5046431,19.8003017 C15.462751,19.8180969 15.4241985,19.843207 15.3907058,19.8745115 C14.8386278,20.4734906 14.1218586,20.6759773 13.3564072,20.7459465 C13.0518838,20.7735102 12.7452889,20.77245 12.4397298,20.7745703 L9.82745831,20.7745703 L9.82745831,20.7745703 C9.63894388,20.7745703 9.45146523,20.7745703 9.26295079,20.7841116 C9.16712048,20.784346 9.08284445,20.8490387 9.05579207,20.9431326 C8.99882342,21.2007466 8.95221271,21.4626011 8.88488612,21.7170347 C8.50164249,23.1302012 7.66057807,24.128853 6.32336851,24.6854265 C5.64536924,24.9619883 4.93385444,25.1431564 4.20827795,25.2239776 C3.29622299,25.3306265 2.37798646,25.3717192 1.46031749,25.3469538 C1.27197565,25.3464928 1.08478927,25.3168256 0.90513211,25.2589622 C0.416933948,25.1097125 0.0640672657,24.6749819 0.0102064266,24.1564167 C-0.0565236455,23.6146155 0.208305385,23.0863972 0.677257515,22.8259411 C0.884513601,22.7094737 1.11719101,22.6485695 1.35363075,22.6488977 L2.55411555,22.6488977 L2.55411555,22.6488977 C3.09587888,22.6523774 3.63658332,22.5994515 4.167882,22.4909369 C4.58698932,22.4140821 4.99040637,22.265338 5.36111624,22.0509788 C5.71253704,21.8481448 5.98639031,21.5293614 6.13796146,21.1466794 C6.24154082,20.8943661 6.1793932,20.7766906 5.93080273,20.7745703 L4.94265562,20.7745703 C4.70753047,20.7745703 4.47136953,20.7745703 4.23728017,20.7533675 C3.79110755,20.7210196 3.35079172,20.6305302 2.92700125,20.484092 C1.76276922,20.0833591 1.03771369,19.2532695 0.736297751,18.0489506 C0.44027288,16.8954404 0.54272676,15.6726739 1.02631996,14.5875937 C1.53800201,13.4097783 2.37803063,12.5733279 3.59405234,12.1704747 C4.22426965,11.9653912 4.89089461,11.904944 5.5465233,11.9934313 C5.80403856,12.0218883 6.05894924,12.071162 6.3088674,12.1407908 C7.18410535,12.3816671 7.92528452,12.9779019 8.36077455,13.7914287 C8.61289023,14.2556303 8.79549806,14.7559363 8.90249461,15.2756245 C9.05944628,16.0542004 9.13994803,16.8468869 9.14279873,17.6418569 C9.14639281,17.8092559 9.15918782,17.9763154 9.1811231,18.1422429 C9.19683138,18.1861574 9.23109642,18.2204485 9.27434452,18.2355352 C9.3414425,18.2565188 9.41135482,18.2665366 9.48150325,18.2652191 L11.9529068,18.2652191 L11.9529068,18.2652191 C12.212089,18.2631043 12.4699718,18.2274843 12.7204299,18.1592051 C13.0047076,18.0916739 13.218403,17.8509993 13.256971,17.5549254 C13.278676,17.4363729 13.2904578,17.3161409 13.292188,17.1955379 C13.2994385,16.98351 13.2994385,16.7619407 13.2994385,16.5456722 L13.2994385,12.4991181 L13.2994385,12.4991181 C13.2994385,12.2870901 13.2994385,12.0644607 13.3129038,11.8492523 C13.3278713,11.5338043 13.4415315,11.2316391 13.6371072,10.9873586 C13.9692523,10.5599793 14.5144862,10.3702341 15.0323212,10.5018145 Z M59.7527106,4.48127986 C59.8897258,4.70701021 59.9707956,4.96357857 59.9888715,5.2286785 C59.9985568,5.37263387 60.0009769,5.51700491 59.9961221,5.66121559 L59.9961221,20.2519213 L59.9961221,20.2519213 C60.0103094,20.5164207 59.9855179,20.7815991 59.9225807,21.0385452 C59.715422,21.7371774 59.1436639,22.1347298 58.42068,22.0668809 C57.8209555,22.0106935 57.3030587,21.4806235 57.2243384,20.8286375 C57.2081192,20.6368755 57.2032766,20.4442833 57.2098372,20.2519213 L57.2098372,5.66015545 L57.2098372,5.66015545 C57.2035132,5.46779244 57.2083554,5.27521478 57.2243384,5.08343934 C57.2952421,4.49212598 57.7163725,4.00748212 58.2818836,3.8663987 C58.8497806,3.73352803 59.4380945,3.97947343 59.7527106,4.48127986 Z M4.21760009,14.6331798 C3.99518675,14.7166553 3.80636132,14.8737288 3.681059,15.0794987 C3.52524056,15.3206591 3.42305354,15.5938932 3.38171464,15.8799043 C3.33244464,16.2613086 3.33244464,16.6476917 3.38171464,17.029096 C3.45629179,17.6407967 3.79603209,18.0341086 4.38332707,18.1814681 C4.70490773,18.250954 5.03385483,18.2780308 5.36215204,18.2620387 C5.54627471,18.2601729 5.69600572,18.2628665 5.81772171,18.2641141 L5.98008152,18.2641503 C6.2897907,18.2586261 6.3372679,18.2061123 6.34141134,17.9004532 L6.34104383,17.7406542 C6.33981029,17.6211375 6.33766246,17.4746516 6.340977,17.2951911 L6.34034881,16.9247753 C6.33720787,16.3885948 6.31836218,16.2172055 6.20528804,15.794033 C6.14288141,15.5634904 6.05930011,15.3395093 5.95566178,15.1250847 C5.84185648,14.8842675 5.63677744,14.7015631 5.38804688,14.6193979 C5.00847542,14.4828401 4.59400161,14.4877205 4.21760009,14.6331798 Z M41.8272663,14.3893476 C41.733009,14.3893476 41.6387518,14.3893476 41.5455304,14.3957084 C41.2120601,14.4110435 40.8988959,14.5640388 40.6775354,14.8197644 C40.4292281,15.0817224 40.2776339,15.4238933 40.2487168,15.7876721 C40.2239995,16.0749613 40.218808,16.3636607 40.2331799,16.6516862 C40.2766832,17.5602261 40.7562557,18.0659128 41.6014633,18.225994 C41.6693439,18.2442315 41.7386665,18.2562933 41.808622,18.2620387 C42.2084383,18.2620387 42.6072189,18.2620387 43.0070352,18.2556779 C43.1029926,18.2425874 43.175193,18.1596781 43.1769053,18.0606121 L43.1794948,17.5840792 L43.1794948,17.5840792 L43.1789769,17.1181477 C43.1924423,16.612461 43.2048718,16.1057141 43.0867913,15.6095686 C43.0528502,15.445482 43.002881,15.2853025 42.937637,15.1314455 C42.7180488,14.6554427 42.3544852,14.3893476 41.8272663,14.3893476 Z M43.3105227,8.28930246 C43.3173687,8.84455218 43.0342753,9.36136222 42.5678809,9.64505523 C42.1014866,9.92874825 41.5226478,9.93622453 41.0494075,9.66466782 C40.5761672,9.39311112 40.2804218,8.88377736 40.2735758,8.32852764 C40.2611463,7.33623667 41.0970318,6.71181426 41.773405,6.73619747 C42.4342413,6.69379188 43.2970574,7.26626744 43.3105227,8.28930246 Z M23.2119834,8.3115654 C23.1961302,9.1668725 22.5117035,9.85038155 21.6759015,9.84561293 C20.7167566,9.82862563 20.1636428,8.96567173 20.1729649,8.27021994 C20.1833229,7.46663388 20.9021636,6.69909258 21.7152616,6.73619747 C22.3564179,6.69803244 23.219234,7.32139471 23.2119834,8.3115654 Z M14.0742251,8.2903626 C14.0758817,8.70381061 13.9158662,9.10075701 13.6298369,9.39271282 C13.3438076,9.68466863 12.9555426,9.84736312 12.5515955,9.84452773 C11.7134106,9.84109377 11.0333242,9.14927205 11.0248357,8.29142274 C11.0362295,7.36910101 11.8223968,6.70651356 12.5515955,6.73619747 C13.1834296,6.69591216 14.0617826,7.25142548 14.0742251,8.2903626 Z M16.0163252,6.72771635 C16.7144501,6.7181751 17.567944,7.35001849 17.5461923,8.2691598 C17.5896957,9.08122698 16.9185014,9.83180605 16.0556853,9.84452773 C15.10897,9.85936968 14.5206392,9.01125775 14.5154602,8.3115654 C14.5082097,7.42316814 15.2954128,6.73725761 16.0163252,6.72771635 Z" id="Combined-Shape" fill="#071927"></path>
                    <path d="M36.1293656,3.80809101 C36.2557324,3.86957912 36.3841708,3.93106724 36.5053587,4.00209661 C37.3581621,4.5053097 38.2099297,5.0099363 39.0606615,5.51597642 C39.1628633,5.57420077 39.2611386,5.63936864 39.3548269,5.71104217 C39.6127395,5.91882959 39.7287484,6.19658625 39.7318558,6.56551495 C39.721343,6.86460308 39.5789461,7.14269543 39.3446333,7.32173653 C39.1103205,7.50077762 38.8093476,7.56146931 38.526192,7.48677654 C38.3902992,7.4514804 38.2599044,7.39688324 38.1388052,7.32457513 C37.2231636,6.78955785 36.3095937,6.25065339 35.3980953,5.70786175 C35.295241,5.64904101 35.1996164,5.57786121 35.1132521,5.49583377 C34.9162448,5.31930305 34.7974711,5.06864857 34.7840061,4.80100889 C34.7705412,4.53336921 34.8635326,4.2715541 35.0417823,4.07524627 C35.2416905,3.83141409 35.7098692,3.60242386 36.1293656,3.80809101 Z M48.8468396,4.79932184 C48.8145527,5.05135942 48.6860713,5.2800575 48.4894908,5.43540579 C48.3789043,5.52403614 48.2610809,5.60277616 48.137321,5.67075685 C47.2858986,6.17538346 46.4324047,6.67859654 45.5768392,7.1803961 C45.4732598,7.23976394 45.3696804,7.29489121 45.2661011,7.34789821 C44.8020655,7.58430941 44.2520591,7.30761289 44.041793,6.94504504 C43.791081,6.51680959 43.878595,5.9659479 44.2489517,5.64107293 C44.3620501,5.55375413 44.4815156,5.47542816 44.6063005,5.40678201 C45.460485,4.90003513 46.3122526,4.39505515 47.1616034,3.89184206 C47.2611524,3.82912047 47.3650026,3.77384905 47.4723415,3.72646023 C48.1414641,3.45400427 48.8634123,3.9565106 48.8468396,4.79932184 Z" id="Combined-Shape" fill="#E61F36"></path>
                    <path d="M39.3456254,9.3096689 C39.5957033,9.47550535 39.7593108,9.74798925 39.790896,10.051255 C39.8293475,10.3933145 39.6902816,10.7310577 39.4242251,10.9417725 C39.3509116,11.0014061 39.2725749,11.0542669 39.1901357,11.0997334 C38.3179975,11.6184952 37.445514,12.1361969 36.5726853,12.6528384 C36.4514974,12.7249279 36.3240948,12.7874761 36.197728,12.8500244 C35.64565,13.1235405 34.9050575,12.7100859 34.86259,12.0199348 L34.8608913,11.9903866 L34.8608913,11.9903866 L34.8615542,11.9648076 L34.8615542,11.9648076 C34.8522321,11.5004663 35.028317,11.2301306 35.3224824,11.036125 C35.5783234,10.8675628 35.8403792,10.718083 36.1086497,10.5580019 C36.7584376,10.1735245 37.408916,9.79046059 38.0600849,9.40881022 C38.2008805,9.32446494 38.3489266,9.25349263 38.5023688,9.19678223 C38.7857064,9.10235407 39.0955475,9.14383246 39.3456254,9.3096689 Z M45.3054612,9.11833188 C45.3929351,9.1533116 45.4771711,9.19624218 45.5571591,9.24660881 C46.4900639,9.79788157 47.4222781,10.3502145 48.3538018,10.9036075 C48.3745177,10.915269 48.3941978,10.9279907 48.4138779,10.9407124 C48.7245459,11.1273035 48.9060375,11.4770854 48.8830924,11.8450118 C48.8944861,12.5054789 48.2616162,13.0111657 47.544847,12.7567321 C47.4365335,12.7131704 47.3324904,12.6592161 47.2341089,12.5955908 C46.3819961,12.0923777 45.5305737,11.5881045 44.6798419,11.0827712 C44.59905,11.0350649 44.5151507,10.9894788 44.4395378,10.9332914 C44.3620398,10.8795857 44.2907976,10.816984 44.2272001,10.7467068 C43.8543144,10.3067487 43.8698513,9.88693332 44.1308713,9.49574169 C44.4271082,9.05154306 44.8662847,8.95719061 45.3054612,9.11833188 Z" id="Combined-Shape" fill="#3DBEB4"></path>
                    <path d="M40.8059738,2.87622802 C40.8059738,2.30057204 40.8059738,1.72385592 40.8059738,1.14819994 C40.7978219,0.855217678 40.9196794,0.574203894 41.1374277,0.38383906 C41.4212352,0.125164919 41.743367,0.0308124662 42.1131453,0.177111775 C42.4766148,0.304093356 42.7357088,0.634540697 42.7781248,1.02522371 C42.7856852,1.09561769 42.788454,1.16646456 42.7864112,1.2372517 C42.7864112,2.31788766 42.7864112,3.39817024 42.7864112,4.47809944 C42.7864112,4.55018895 42.7864112,4.62227847 42.7864112,4.69012742 C42.7538777,5.18967752 42.3765596,5.59372293 41.8904497,5.64955405 C41.376757,5.6919894 40.9159027,5.32731634 40.8266896,4.80780296 C40.8131111,4.66442293 40.8079229,4.52034006 40.8111527,4.37632601 C40.8111527,4.35194279 40.8111527,4.32861971 40.8111527,4.30423649 C40.8111527,3.82434649 40.8111527,3.3441031 40.8111527,2.86350634 L40.8059738,2.87622802 Z" id="Path" fill="#F89E22"></path>
                    <path d="M35.0687129,7.35955975 C35.185424,7.3650609 35.3008164,7.38718325 35.4115606,7.42528842 C35.7920638,7.544356 36.0642834,7.88732162 36.1002041,8.2929006 C36.1361249,8.69847958 35.928598,9.0859556 35.575216,9.27311231 C35.4498477,9.33749943 35.3124566,9.37364865 35.1722923,9.3791263 C34.9154155,9.3950284 34.6543955,9.3791263 34.3995903,9.3791263 L34.4037334,9.38124658 C34.1458208,9.38124658 33.8858366,9.39714868 33.6310314,9.38124658 C33.1686895,9.34836811 32.7961486,8.98048084 32.7474994,8.50875142 C32.6800784,8.01193026 32.9847245,7.5414929 33.4580539,7.4115066 C33.5474973,7.38430729 33.639507,7.36689427 33.7325392,7.35955975 C34.1779304,7.35425905 34.6233217,7.35213877 35.0687129,7.35955975 Z M49.9965705,7.16131358 C50.4876989,7.17672927 50.8938453,7.5577059 50.9515722,8.05713182 C51.0271852,8.57341996 50.6087245,9.11727174 50.0825414,9.17345916 C49.8277362,9.19890251 49.5646446,9.17345916 49.3108751,9.17345916 L49.3056962,9.18406055 C49.0716068,9.18406055 48.8375175,9.19466195 48.6034281,9.18406055 C48.1560316,9.16125633 47.7787658,8.83508756 47.6820015,8.38743228 C47.5852372,7.939777 47.7928662,7.48116514 48.1891107,7.26732757 C48.3125762,7.197885 48.4511548,7.16142331 48.5920344,7.16131358 L49.9965705,7.16131358 L49.9965705,7.16131358 Z M38.3615008,0.408222278 C38.412987,0.457246386 38.458542,0.512414319 38.4971898,0.572543966 C38.7613172,1.02628385 39.0275161,1.4789636 39.2781782,1.94012447 C39.329356,2.04928308 39.3666048,2.16472513 39.3890081,2.2836098 C39.4064673,2.72537169 39.1542339,3.13183977 38.7561382,3.30346441 C38.3335344,3.49747001 37.8663915,3.28014133 37.6664833,3.03842943 C37.6059711,2.96487911 37.5512481,2.88653697 37.5028279,2.8041385 C37.2842755,2.43414967 37.0729736,2.06204056 36.8523495,1.69205172 C36.7405522,1.50677278 36.6887191,1.29011503 36.704231,1.07293001 C36.7155625,0.677699046 36.9621297,0.329858935 37.3257072,0.196194294 C37.6809856,0.0448349143 38.0904298,0.128648562 38.3615008,0.408222278 Z M46.7825029,1.02098315 C46.784746,1.1820135 46.7492263,1.34124638 46.6789236,1.48532444 C46.4386194,1.92422237 46.2045301,2.36736085 45.953868,2.80095808 C45.8095883,3.05429148 45.5585394,3.22467742 45.2743874,3.26211895 C44.9434922,3.31667222 44.6083094,3.19433935 44.3857973,2.93780702 C44.1632852,2.68127469 44.0843164,2.32613573 44.1764462,1.99631188 C44.2000567,1.90356007 44.2348504,1.81417517 44.2800255,1.73021676 C44.493399,1.33054401 44.7088441,0.93087126 44.9294681,0.536499209 C45.060274,0.306656383 45.2682703,0.133333925 45.5146915,0.0488348448 C46.0139441,-0.143050481 46.7856103,0.240720171 46.7825029,1.02098315 Z" id="Combined-Shape" fill="#071927"></path>
                </g>
            </g>
        </g>
    </g>
</svg>