<svg width="105" height="55" viewBox="0 0 105 55" fill="none" xmlns="http://www.w3.org/2000/svg">
<path d="M33.781 20.973C31.578 20.973 29.509 21.846 27.578 23.584C27.55 23.612 27.524 23.624 27.496 23.624C27.468 23.624 27.455 23.612 27.455 23.584V14.324C27.455 13.7 27.219 13.158 26.752 12.694C26.285 12.232 25.732 12 25.098 12H2.357C1.723 12 1.17 12.232 0.703 12.693C0.235 13.158 0 13.7 0 14.325V15.425C0 16.053 0.235 16.596 0.703 17.058C1.17 17.522 1.723 17.751 2.357 17.751H7.649C7.869 17.751 7.98 17.861 7.98 18.077V40.267C7.98 40.893 8.216 41.437 8.683 41.897C9.15 42.362 9.703 42.591 10.337 42.591H12.817C13.451 42.591 14.004 42.362 14.471 41.898C14.939 41.437 15.174 40.893 15.174 40.266V18.077C15.174 17.861 15.286 17.751 15.505 17.751H20.757V40.266C20.757 40.893 20.992 41.436 21.459 41.898C21.93 42.362 22.48 42.591 23.113 42.591H25.098C25.731 42.591 26.285 42.362 26.752 41.898C27.219 41.437 27.455 40.893 27.455 40.266V29.946C27.455 29.049 27.862 28.199 28.675 27.399C29.487 26.595 30.361 26.195 31.3 26.195C32.486 26.195 33.29 26.549 33.72 27.255C34.146 27.965 34.36 29.405 34.36 31.578V40.266C34.36 40.893 34.595 41.436 35.062 41.898C35.529 42.362 36.082 42.591 36.716 42.591H38.535C39.171 42.591 39.721 42.362 40.189 41.898C40.656 41.437 40.892 40.893 40.892 40.266V30.762C40.892 27.092 40.342 24.543 39.238 23.116C38.133 21.689 36.316 20.973 33.781 20.973Z" fill="#1E293B"/>
<path d="M52.1989 31.864C52.0619 31.676 52.0619 31.497 52.1989 31.334L59.2689 23.134C59.5719 22.783 59.6219 22.401 59.4149 21.993C59.2079 21.585 58.8839 21.381 58.4409 21.381H55.4639C54.2099 21.381 53.1389 21.776 52.2479 22.567C52.0354 22.7533 51.8384 22.9567 51.6589 23.175L46.5509 29.3L46.4909 29.375L44.5889 31.625L46.4919 34.065L51.7019 40.755C52.6659 41.979 53.9219 42.591 55.4639 42.591H58.4409C58.9089 42.591 59.2489 42.387 59.4559 41.979C59.6629 41.571 59.6279 41.179 59.3509 40.796L52.1999 31.863L52.1989 31.864Z" fill="#FAA104"/>
<path d="M71.2598 20.974C67.8408 20.974 65.2298 21.918 63.4258 23.81C61.6188 25.699 60.7158 28.426 60.7158 31.986C60.7158 35.546 61.7308 38.309 63.7558 40.186C65.7818 42.061 68.6688 43 72.4178 43C74.1258 43 75.7798 42.85 77.3798 42.552C78.0418 42.445 78.5858 42.109 79.0148 41.554C79.4418 40.996 79.6548 40.378 79.6548 39.697V39.617C79.6548 39.045 79.4288 38.584 78.9748 38.23C78.5198 37.878 78.0008 37.769 77.4228 37.903C75.9878 38.257 74.6528 38.433 73.4118 38.433C71.5088 38.433 70.0848 38.113 69.1338 37.477C68.1828 36.837 67.5938 35.77 67.3748 34.273C67.3208 34.028 67.4288 33.906 67.7048 33.906H78.7448C79.3949 33.9111 80.0232 33.6716 80.5048 33.235C81.0128 32.786 81.2668 32.234 81.2668 31.581C81.1548 24.512 77.8228 20.976 71.2608 20.976L71.2598 20.974ZM74.6498 29.988H67.6618C67.4678 29.988 67.3718 29.881 67.3718 29.661C67.5378 28.111 67.9388 27.016 68.5718 26.379C69.2058 25.739 70.1438 25.419 71.3838 25.419C73.6988 25.419 74.9108 26.822 75.0218 29.621C75.0218 29.866 74.8988 29.988 74.6498 29.988ZM94.9938 20.974C91.5748 20.974 88.9628 21.918 87.1588 23.81C85.3518 25.699 84.4488 28.426 84.4488 31.986C84.4488 35.546 85.4638 38.309 87.4898 40.186C89.5158 42.061 92.4018 43 96.1498 43C97.8144 43.0033 99.4757 42.8534 101.113 42.552C101.774 42.445 102.318 42.109 102.748 41.554C103.164 41.0247 103.389 40.3703 103.387 39.697V39.617C103.387 39.045 103.161 38.584 102.707 38.23C102.252 37.878 101.733 37.769 101.155 37.903C99.7198 38.257 98.3848 38.433 97.1448 38.433C95.2418 38.433 93.8178 38.113 92.8668 37.477C91.9148 36.837 91.3268 35.77 91.1068 34.273C91.0538 34.028 91.1618 33.906 91.4388 33.906H102.478C103.128 33.9109 103.755 33.6714 104.237 33.235C104.746 32.786 105 32.234 105 31.581C104.892 24.512 101.555 20.976 94.9938 20.976V20.974ZM98.3838 29.988H91.3958C91.2018 29.988 91.1058 29.881 91.1058 29.661C91.2708 28.111 91.6728 27.016 92.3058 26.379C92.9388 25.739 93.8778 25.419 95.1168 25.419C97.4328 25.419 98.6468 26.822 98.7568 29.621C98.7568 29.866 98.6318 29.988 98.3838 29.988Z" fill="#1E293B"/>
</svg>
